<mxfile host="app.diagrams.net" modified="2023-09-21T09:28:01.045Z" agent="Mozilla/5.0 (Macintosh; Intel Mac OS X 10_15_7) AppleWebKit/537.36 (KHTML, like Gecko) Chrome/116.0.0.0 Safari/537.36" etag="Ak0Imwcf5aPczx7325aK" version="21.8.0" type="github">
  <diagram name="Page-1" id="2bR1170Dyei2Tg7bM2K9">
    <mxGraphModel dx="749" dy="408" grid="1" gridSize="10" guides="1" tooltips="1" connect="1" arrows="1" fold="1" page="1" pageScale="1" pageWidth="827" pageHeight="1169" math="0" shadow="0">
      <root>
        <mxCell id="0" />
        <mxCell id="1" parent="0" />
        <mxCell id="kmGki4yIv0iG11e03maJ-14" style="rounded=0;orthogonalLoop=1;jettySize=auto;html=1;entryX=0.5;entryY=1;entryDx=0;entryDy=0;exitX=0.25;exitY=0;exitDx=0;exitDy=0;" edge="1" parent="1" source="kmGki4yIv0iG11e03maJ-17" target="kmGki4yIv0iG11e03maJ-10">
          <mxGeometry relative="1" as="geometry">
            <mxPoint x="310.6075000000001" y="369.0000000000001" as="sourcePoint" />
          </mxGeometry>
        </mxCell>
        <mxCell id="kmGki4yIv0iG11e03maJ-15" style="rounded=0;orthogonalLoop=1;jettySize=auto;html=1;exitX=0.75;exitY=0;exitDx=0;exitDy=0;entryX=0.5;entryY=1;entryDx=0;entryDy=0;" edge="1" parent="1" source="kmGki4yIv0iG11e03maJ-17" target="kmGki4yIv0iG11e03maJ-11">
          <mxGeometry relative="1" as="geometry">
            <mxPoint x="409.38250000000016" y="369.0000000000001" as="sourcePoint" />
          </mxGeometry>
        </mxCell>
        <mxCell id="kmGki4yIv0iG11e03maJ-7" style="edgeStyle=orthogonalEdgeStyle;rounded=0;orthogonalLoop=1;jettySize=auto;html=1;entryX=0.5;entryY=1;entryDx=0;entryDy=0;" edge="1" parent="1" source="kmGki4yIv0iG11e03maJ-6" target="kmGki4yIv0iG11e03maJ-17">
          <mxGeometry relative="1" as="geometry">
            <mxPoint x="359.9950000000001" y="486.38413335906773" as="targetPoint" />
          </mxGeometry>
        </mxCell>
        <mxCell id="kmGki4yIv0iG11e03maJ-6" value="&lt;span style=&quot;font-weight: normal;&quot;&gt;Local Git Repository&lt;/span&gt;" style="shape=datastore;whiteSpace=wrap;html=1;fillColor=#f5f5f5;fontColor=#333333;strokeColor=#666666;fontStyle=1" vertex="1" parent="1">
          <mxGeometry x="280" y="530" width="160" height="100" as="geometry" />
        </mxCell>
        <mxCell id="kmGki4yIv0iG11e03maJ-8" value="&lt;span&gt;Push&lt;/span&gt;" style="text;html=1;align=center;verticalAlign=middle;resizable=0;points=[];autosize=1;strokeColor=none;fillColor=none;fontStyle=0" vertex="1" parent="1">
          <mxGeometry x="364" y="480" width="50" height="30" as="geometry" />
        </mxCell>
        <mxCell id="kmGki4yIv0iG11e03maJ-10" value="MySQL DB" style="shape=datastore;whiteSpace=wrap;html=1;fillColor=#f5f5f5;fontColor=#333333;strokeColor=#666666;" vertex="1" parent="1">
          <mxGeometry x="180" y="240" width="160" height="100" as="geometry" />
        </mxCell>
        <mxCell id="kmGki4yIv0iG11e03maJ-11" value="Linux Server" style="rounded=1;whiteSpace=wrap;html=1;verticalAlign=top;fillColor=#f5f5f5;fontColor=#333333;strokeColor=#666666;" vertex="1" parent="1">
          <mxGeometry x="374" y="200" width="200" height="140" as="geometry" />
        </mxCell>
        <mxCell id="kmGki4yIv0iG11e03maJ-12" value="Docker" style="rounded=1;whiteSpace=wrap;html=1;horizontal=1;verticalAlign=top;fillColor=#dae8fc;strokeColor=#6c8ebf;" vertex="1" parent="1">
          <mxGeometry x="394" y="230" width="160" height="90" as="geometry" />
        </mxCell>
        <mxCell id="kmGki4yIv0iG11e03maJ-13" value="Django Web App" style="rounded=1;whiteSpace=wrap;html=1;fillColor=#f8cecc;strokeColor=#b85450;" vertex="1" parent="1">
          <mxGeometry x="414" y="260" width="120" height="40" as="geometry" />
        </mxCell>
        <mxCell id="kmGki4yIv0iG11e03maJ-16" value="Deploy" style="text;html=1;align=center;verticalAlign=middle;resizable=0;points=[];autosize=1;strokeColor=none;fillColor=none;" vertex="1" parent="1">
          <mxGeometry x="444" y="360" width="60" height="30" as="geometry" />
        </mxCell>
        <mxCell id="kmGki4yIv0iG11e03maJ-17" value="GitHub Actions Worker" style="rounded=1;whiteSpace=wrap;html=1;" vertex="1" parent="1">
          <mxGeometry x="300" y="390" width="120" height="60" as="geometry" />
        </mxCell>
        <mxCell id="kmGki4yIv0iG11e03maJ-18" value="Migrate" style="text;html=1;align=center;verticalAlign=middle;resizable=0;points=[];autosize=1;strokeColor=none;fillColor=none;" vertex="1" parent="1">
          <mxGeometry x="230" y="360" width="60" height="30" as="geometry" />
        </mxCell>
      </root>
    </mxGraphModel>
  </diagram>
</mxfile>
